Release info:

General
Format                                   : Matroska
Format version                           : Version 4 / Version 2
File size                                : 697 MiB
Duration                                 : 2h 22mn
Overall bit rate                         : 686 Kbps
Movie name                               : Race 2 DVDScr Hindi [EngSub]

Video
ID                                       : 1
Format                                   : AVC
Format/Info                              : Advanced Video Codec
Format profile                           : High@L2.2
Format settings, CABAC                   : Yes
Format settings, ReFrames                : 4 frames
Codec ID                                 : V_MPEG4/ISO/AVC
Duration                                 : 2h 22mn
Bit rate                                 : 604 Kbps
Width                                    : 640 pixels
Height                                   : 272 pixels
Display aspect ratio                     : 2.35:1
Frame rate mode                          : Constant
Frame rate                               : 23.976 fps
Color space                              : YUV
Chroma subsampling                       : 4:2:0
Bit depth                                : 8 bits
Scan type                                : Progressive
Bits/(Pixel*Frame)                       : 0.145
Stream size                              : 602 MiB (86%)
Title                                    : Race 2 DVDScr Hindi [EngSub]
Language                                 : Hindi
Default                                  : Yes
Forced                                   : No

Audio
ID                                       : 2
Format                                   : MPEG Audio
Format version                           : Version 1
Format profile                           : Layer 3
Mode                                     : Joint stereo
Mode extension                           : MS Stereo
Codec ID                                 : A_MPEG/L3
Codec ID/Hint                            : MP3
Duration                                 : 2h 22mn
Bit rate mode                            : Constant
Bit rate                                 : 80.0 Kbps
Channel(s)                               : 2 channels
Sampling rate                            : 32.0 KHz
Compression mode                         : Lossy
Stream size                              : 81.3 MiB (12%)
Title                                    : Race 2 DVDScr Hindi [EngSub]
Language                                 : Hindi
Default                                  : Yes
Forced                                   : No

Text
ID                                       : 3
Format                                   : UTF-8
Codec ID                                 : S_TEXT/UTF8
Codec ID/Info                            : UTF-8 Plain Text
Title                                    : Race 2 DVDScr Hindi [EngSub]
Language                                 : English
Default                                  : Yes
Forced                                   : No

Source:
credit to original movie ripper DDR (Thanks)

IMDB Info:

Ranvir treads through the world of the Indian mafia in Turkey as he looks to avenge the death of his lover and partner in crime.

Directors: Abbas Alibhai Burmawalla, Mastan Alibhai Burmawalla
Writers: Shiraz Ahmed (screenplay), Kiran Kotrial (dialogue)
Stars: Saif Ali Khan, Anil Kapoor and John Abraham 

Genres: Thriller | Action | Crime | Drama
 
http://www.imdb.com/title/tt1375789/

Screen Shot:
 
http://www.shotpix.com/images/97671484966921797130.png 
http://www.shotpix.com/images/25764605810590906650.png 
http://www.shotpix.com/images/44324842757665996072.png 
http://www.shotpix.com/images/23765219106895231677.png